<svg viewBox="0 0 64 64" xml:space="preserve" xmlns="http://www.w3.org/2000/svg"><circle cx="31.833" cy="32" fill="#f2c18a" r="32" class="fill-77b3d4"></circle><path d="M52 48a2 2 0 0 1-2 2H14a2 2 0 1 1 0-4h36a2 2 0 0 1 2 2z" fill="#2b2b2b" opacity=".2" class="fill-231f20"></path><path d="M52 46a2 2 0 0 1-2 2H14a2 2 0 1 1 0-4h36a2 2 0 0 1 2 2z" fill="#40372f" class="fill-e0995e"></path><path d="M23 20h-4a3 3 0 0 0-3 3v21h10V23a3 3 0 0 0-3-3z" fill="#7a85a1" class="fill-c75c5c"></path><path d="M45 16h-4a3 3 0 0 0-3 3v25h10V19a3 3 0 0 0-3-3z" fill="#E0E0D1" class="fill-e0e0d1"></path><path fill="#40372f" d="M16 24h10v3H16zM16 37h10v3H16z" class="fill-e0995e"></path><path fill="#FFFFFF" d="M38 37h10v3H38zM38 20h10v3H38z" class="fill-ffffff"></path><path d="M40 40V16.184A2.99 2.99 0 0 0 38 19v25h2v-4zM26 40V23a2.99 2.99 0 0 0-2-2.816V44h2v-4z" fill="#2b2b2b" opacity=".2" class="fill-231f20"></path><path d="M35 12h-6a3 3 0 0 0-3 3v29h12V15a3 3 0 0 0-3-3z" fill="#e36d6d" class="fill-4f5d73"></path><path fill="#76C2AF" d="M26 16h12v3H26zM26 37h12v3H26z" class="fill-76c2af"></path></svg>